<?xml version="1.0" standalone="no"?>
<!DOCTYPE svg PUBLIC "-//W3C//DTD SVG 20010904//EN"
 "http://www.w3.org/TR/2001/REC-SVG-20010904/DTD/svg10.dtd">
<svg version="1.0" xmlns="http://www.w3.org/2000/svg"
 width="auto" height="22px" viewBox="0 0 3840.000000 2160.000000"
 preserveAspectRatio="xMidYMid meet">

<g transform="translate(0.000000,2160.000000) scale(0.100000,-0.100000)"
fill="#4255ff" stroke="none">
<path d="M18730 21244 c-668 -38 -1205 -111 -1795 -245 -1527 -344 -2970
-1043 -4192 -2031 -397 -321 -935 -835 -1248 -1193 -822 -942 -1433 -1942
-1880 -3075 -375 -950 -595 -1900 -691 -2980 -22 -243 -31 -1153 -15 -1425 56
-924 230 -1834 517 -2692 802 -2404 2453 -4430 4637 -5692 1276 -736 2689
-1189 4157 -1331 363 -35 566 -44 980 -44 630 0 1107 40 1725 144 1018 172
2050 515 2968 988 140 72 151 76 215 76 85 1 104 -7 292 -128 1183 -760 2608
-1208 3983 -1253 108 -3 197 -10 197 -15 0 -4 52 -8 115 -8 63 0 115 4 115 9
0 4 17 11 39 14 87 11 168 74 212 163 l24 49 0 1825 0 1825 -26 55 c-29 62
-76 113 -132 141 -21 11 -99 31 -175 45 -374 69 -861 231 -949 316 -70 67
-102 170 -83 262 12 57 15 64 187 336 797 1261 1320 2730 1507 4225 44 350 76
774 76 1003 0 74 4 122 10 122 6 0 10 65 10 175 0 96 -4 175 -8 175 -5 0 -12
100 -15 223 -33 1119 -291 2342 -722 3427 -129 325 -194 469 -360 805 -692
1397 -1692 2618 -2930 3576 -1295 1002 -2848 1694 -4452 1984 -370 66 -862
127 -1143 140 -123 6 -1073 13 -1150 9z m1050 -4098 c666 -68 1267 -221 1857
-472 1906 -812 3284 -2515 3688 -4558 77 -392 105 -667 112 -1107 6 -350 -2
-549 -33 -814 -243 -2127 -1536 -3976 -3439 -4919 -682 -338 -1382 -539 -2170
-622 -203 -21 -762 -30 -980 -15 -682 46 -1321 191 -1948 442 -201 80 -655
305 -837 414 -498 299 -880 602 -1290 1021 -930 951 -1526 2165 -1719 3499
-44 307 -55 475 -55 835 0 437 23 733 85 1095 187 1104 662 2135 1373 2987
798 955 1860 1648 3059 1997 388 113 879 200 1307 230 188 14 807 5 990 -13z"/>
</g>
</svg>
