<?xml version="1.0" standalone="no"?>
<!DOCTYPE svg PUBLIC "-//W3C//DTD SVG 20010904//EN"
 "http://www.w3.org/TR/2001/REC-SVG-20010904/DTD/svg10.dtd">
<svg version="1.0" xmlns="http://www.w3.org/2000/svg"
 width="95px" height="22px" viewBox="0 0 482.000000 104.000000"
 preserveAspectRatio="xMidYMid meet">

<g transform="translate(0.000000,104.000000) scale(0.100000,-0.100000)"
fill="#4255ff" stroke="none">
<path d="M2125 1033 c-67 -18 -109 -94 -85 -153 31 -74 118 -103 187 -60 64
39 66 145 3 191 -28 21 -74 30 -105 22z"/>
<path d="M381 994 c-312 -84 -465 -415 -325 -703 67 -137 207 -242 362 -272
102 -19 228 -8 305 29 l65 30 29 -29 29 -30 111 3 112 3 -68 75 -68 74 43 63
c167 244 76 587 -192 721 -101 51 -286 68 -403 36z m259 -189 c158 -56 244
-229 195 -391 -8 -27 -22 -58 -31 -69 -15 -19 -17 -18 -73 43 l-57 63 -114 -3
-113 -3 98 -108 c75 -84 95 -111 86 -120 -7 -7 -45 -12 -99 -12 -75 0 -95 4
-144 28 -61 30 -105 74 -140 140 -19 35 -23 58 -23 137 0 84 3 101 27 146 38
72 109 131 188 155 43 13 156 10 200 -6z"/>
<path d="M3210 510 l0 -490 100 0 100 0 0 490 0 490 -100 0 -100 0 0 -490z"/>
<path d="M4460 865 l0 -135 -50 0 -50 0 0 -95 0 -95 50 0 50 0 0 -260 0 -260
100 0 100 0 0 260 0 260 80 0 80 0 0 95 0 95 -80 0 -80 0 0 135 0 135 -100 0
-100 0 0 -135z"/>
<path d="M3782 721 c-78 -29 -143 -80 -180 -142 -43 -71 -54 -117 -54 -214 1
-173 89 -295 247 -341 111 -32 308 -15 381 33 22 14 24 22 24 99 0 46 -1 84
-3 84 -2 0 -22 -9 -44 -20 -59 -28 -117 -40 -203 -40 -116 0 -176 35 -195 113
l-7 27 265 0 c305 0 285 -7 272 98 -16 132 -87 237 -193 288 -78 38 -229 45
-310 15z m233 -170 c32 -18 70 -80 57 -93 -5 -5 -78 -7 -163 -6 -148 3 -154 4
-151 23 6 33 53 75 102 90 52 16 111 11 155 -14z"/>
<path d="M1212 473 c3 -257 3 -258 30 -308 31 -59 57 -85 120 -118 139 -73
356 -48 457 54 71 72 76 95 79 377 l3 252 -105 0 -106 0 0 -215 c0 -242 -6
-271 -62 -305 -65 -40 -163 -17 -192 45 -13 27 -16 73 -16 254 l0 221 -106 0
-105 0 3 -257z"/>
<path d="M2050 375 l0 -355 105 0 105 0 0 355 0 355 -105 0 -105 0 0 -355z"/>
<path d="M2410 640 l0 -90 165 -2 165 -3 -181 -235 c-99 -129 -189 -247 -200
-262 l-20 -28 370 0 371 0 0 90 0 90 -185 0 c-102 0 -185 3 -185 7 0 4 88 123
195 265 l195 258 -345 0 -345 0 0 -90z"/>
</g>
</svg>
